<svg xmlns="http://www.w3.org/2000/svg" viewBox="0 0 64 64">
  <!-- Campfire / Fire icon -->
  <!-- Log base -->
  <ellipse cx="22" cy="56" rx="12" ry="4" fill="#6d4c41" transform="rotate(-20, 22, 56)"/>
  <ellipse cx="42" cy="56" rx="12" ry="4" fill="#5d4037" transform="rotate(20, 42, 56)"/>
  <!-- Inner dark flame (shadow) -->
  <path d="M32,58 Q22,48 24,36 Q26,28 20,20 Q24,26 24,30 Q28,20 32,12 Q36,20 40,30 Q40,26 44,20 Q38,28 40,36 Q42,48 32,58 Z"
        fill="#bf360c" transform="translate(0,1)"/>
  <!-- Outer flame -->
  <path d="M32,58 Q22,48 24,36 Q26,28 20,20 Q24,26 24,30 Q28,20 32,12 Q36,20 40,30 Q40,26 44,20 Q38,28 40,36 Q42,48 32,58 Z"
        fill="#ff6f00"/>
  <!-- Middle flame -->
  <path d="M32,56 Q25,46 26,36 Q28,28 24,22 Q28,28 28,32 Q30,24 32,18 Q34,24 36,32 Q36,28 40,22 Q36,28 38,36 Q39,46 32,56 Z"
        fill="#ffa000"/>
  <!-- Inner bright core -->
  <path d="M32,54 Q27,46 28,38 Q30,32 28,26 Q30,32 32,28 Q34,32 36,26 Q34,32 36,38 Q37,46 32,54 Z"
        fill="#ffcc02"/>
  <!-- Hottest center -->
  <path d="M32,52 Q29,46 30,40 Q31,36 32,32 Q33,36 34,40 Q35,46 32,52 Z"
        fill="#fff9c4"/>
  <!-- Embers -->
  <circle cx="26" cy="48" r="1.5" fill="#ff6f00" opacity="0.8"/>
  <circle cx="38" cy="44" r="1" fill="#ffa000" opacity="0.7"/>
  <circle cx="30" cy="28" r="1.2" fill="#ffcc02" opacity="0.6"/>
</svg>
