<svg xmlns="http://www.w3.org/2000/svg" viewBox="0 0 64 64">
  <!-- Heart / HP icon -->
  <!-- Shadow -->
  <path d="M32,56 Q8,40 8,24 Q8,12 18,12 Q24,12 28,18 Q30,22 32,24 Q34,22 36,18 Q40,12 46,12 Q56,12 56,24 Q56,40 32,56 Z"
        fill="#b71c1c" transform="translate(1,2)"/>
  <!-- Main heart -->
  <path d="M32,56 Q8,40 8,24 Q8,12 18,12 Q24,12 28,18 Q30,22 32,24 Q34,22 36,18 Q40,12 46,12 Q56,12 56,24 Q56,40 32,56 Z"
        fill="#f44336"/>
  <!-- Highlight -->
  <path d="M22,18 Q20,24 22,28" stroke="#ef9a9a" stroke-width="3" fill="none" stroke-linecap="round" opacity="0.8"/>
  <circle cx="24" cy="17" r="3" fill="#ef9a9a" opacity="0.6"/>
  <!-- Inner shine -->
  <path d="M20,20 Q18,28 20,34" stroke="#fff" stroke-width="1.5" fill="none" stroke-linecap="round" opacity="0.3"/>
</svg>
