<svg xmlns="http://www.w3.org/2000/svg" viewBox="0 0 64 64">
  <!-- Wizard/Mage hero character -->
  <!-- Hat -->
  <polygon points="32,4 44,28 20,28" fill="#6a0dad"/>
  <rect x="16" y="27" width="32" height="5" rx="2" fill="#7b1fa2"/>
  <circle cx="32" cy="27" r="3" fill="#ffd700"/>
  <!-- Face -->
  <circle cx="32" cy="36" r="9" fill="#ffe0b2"/>
  <circle cx="28.5" cy="35" r="1.5" fill="#333"/>
  <circle cx="35.5" cy="35" r="1.5" fill="#333"/>
  <path d="M29,40 Q32,43 35,40" stroke="#333" stroke-width="1.5" fill="none" stroke-linecap="round"/>
  <!-- Body/Robe -->
  <path d="M20,45 Q16,58 18,62 L46,62 Q48,58 44,45 Q38,42 26,45 Z" fill="#6a0dad"/>
  <!-- Staff -->
  <rect x="48" y="22" width="3" height="36" rx="1.5" fill="#8B4513"/>
  <circle cx="49.5" cy="20" r="5" fill="#00bcd4" opacity="0.8"/>
  <circle cx="49.5" cy="20" r="3" fill="#fff" opacity="0.6"/>
  <!-- Stars on robe -->
  <text x="24" y="57" font-size="8" fill="#ffd700">✦</text>
  <text x="33" y="55" font-size="6" fill="#ffd700">✦</text>
</svg>
